<mxfile host="app.diagrams.net" modified="2023-08-31T03:55:23.314Z" agent="Mozilla/5.0 (Macintosh; Intel Mac OS X 10_15_7) AppleWebKit/537.36 (KHTML, like Gecko) Chrome/116.0.0.0 Safari/537.36" etag="-wDGpd2QoJ5qAnyzyEyc" version="21.6.9" type="github">
  <diagram name="第 1 页" id="UPM21AXOTNqL97hx997m">
    <mxGraphModel dx="2896" dy="790" grid="1" gridSize="10" guides="1" tooltips="1" connect="1" arrows="1" fold="1" page="1" pageScale="1" pageWidth="827" pageHeight="1169" math="0" shadow="0">
      <root>
        <mxCell id="0" />
        <mxCell id="1" parent="0" />
        <mxCell id="IvAjmsgnJbrjpKuY-dAH-1" style="edgeStyle=orthogonalEdgeStyle;rounded=0;orthogonalLoop=1;jettySize=auto;html=1;exitX=0;exitY=0.5;exitDx=0;exitDy=0;entryX=0.5;entryY=0;entryDx=0;entryDy=0;" edge="1" parent="1" source="IvAjmsgnJbrjpKuY-dAH-32" target="IvAjmsgnJbrjpKuY-dAH-8">
          <mxGeometry relative="1" as="geometry" />
        </mxCell>
        <mxCell id="IvAjmsgnJbrjpKuY-dAH-2" value="n" style="edgeLabel;html=1;align=center;verticalAlign=middle;resizable=0;points=[];" vertex="1" connectable="0" parent="IvAjmsgnJbrjpKuY-dAH-1">
          <mxGeometry x="-0.1301" relative="1" as="geometry">
            <mxPoint as="offset" />
          </mxGeometry>
        </mxCell>
        <mxCell id="IvAjmsgnJbrjpKuY-dAH-3" style="edgeStyle=orthogonalEdgeStyle;rounded=0;orthogonalLoop=1;jettySize=auto;html=1;exitX=0.5;exitY=1;exitDx=0;exitDy=0;entryX=0.5;entryY=0;entryDx=0;entryDy=0;" edge="1" parent="1" source="IvAjmsgnJbrjpKuY-dAH-4" target="IvAjmsgnJbrjpKuY-dAH-32">
          <mxGeometry relative="1" as="geometry">
            <mxPoint x="-900" y="1030" as="targetPoint" />
          </mxGeometry>
        </mxCell>
        <mxCell id="IvAjmsgnJbrjpKuY-dAH-4" value="search function&amp;nbsp;" style="rounded=0;whiteSpace=wrap;html=1;" vertex="1" parent="1">
          <mxGeometry x="-872.5" y="900" width="120" height="60" as="geometry" />
        </mxCell>
        <mxCell id="IvAjmsgnJbrjpKuY-dAH-5" style="edgeStyle=orthogonalEdgeStyle;rounded=0;orthogonalLoop=1;jettySize=auto;html=1;exitX=0.5;exitY=1;exitDx=0;exitDy=0;entryX=0.5;entryY=0;entryDx=0;entryDy=0;" edge="1" parent="1" source="IvAjmsgnJbrjpKuY-dAH-8" target="IvAjmsgnJbrjpKuY-dAH-15">
          <mxGeometry relative="1" as="geometry" />
        </mxCell>
        <mxCell id="IvAjmsgnJbrjpKuY-dAH-6" value="y" style="edgeLabel;html=1;align=center;verticalAlign=middle;resizable=0;points=[];" vertex="1" connectable="0" parent="IvAjmsgnJbrjpKuY-dAH-5">
          <mxGeometry x="-0.225" y="3" relative="1" as="geometry">
            <mxPoint as="offset" />
          </mxGeometry>
        </mxCell>
        <mxCell id="IvAjmsgnJbrjpKuY-dAH-7" value="n" style="edgeStyle=orthogonalEdgeStyle;rounded=0;orthogonalLoop=1;jettySize=auto;html=1;exitX=1;exitY=0.5;exitDx=0;exitDy=0;entryX=0;entryY=0.5;entryDx=0;entryDy=0;" edge="1" parent="1" source="IvAjmsgnJbrjpKuY-dAH-8" target="IvAjmsgnJbrjpKuY-dAH-13">
          <mxGeometry relative="1" as="geometry" />
        </mxCell>
        <mxCell id="IvAjmsgnJbrjpKuY-dAH-8" value="exist in&lt;br&gt;built-in function?" style="rhombus;whiteSpace=wrap;html=1;" vertex="1" parent="1">
          <mxGeometry x="-1105" y="1120" width="170" height="80" as="geometry" />
        </mxCell>
        <mxCell id="IvAjmsgnJbrjpKuY-dAH-9" style="edgeStyle=orthogonalEdgeStyle;rounded=0;orthogonalLoop=1;jettySize=auto;html=1;exitX=0.5;exitY=1;exitDx=0;exitDy=0;entryX=0.5;entryY=0;entryDx=0;entryDy=0;" edge="1" parent="1" source="IvAjmsgnJbrjpKuY-dAH-13" target="IvAjmsgnJbrjpKuY-dAH-27">
          <mxGeometry relative="1" as="geometry" />
        </mxCell>
        <mxCell id="IvAjmsgnJbrjpKuY-dAH-10" value="y" style="edgeLabel;html=1;align=center;verticalAlign=middle;resizable=0;points=[];" vertex="1" connectable="0" parent="IvAjmsgnJbrjpKuY-dAH-9">
          <mxGeometry x="-0.175" relative="1" as="geometry">
            <mxPoint as="offset" />
          </mxGeometry>
        </mxCell>
        <mxCell id="IvAjmsgnJbrjpKuY-dAH-11" style="edgeStyle=orthogonalEdgeStyle;rounded=0;orthogonalLoop=1;jettySize=auto;html=1;exitX=1;exitY=0.5;exitDx=0;exitDy=0;entryX=0;entryY=0.5;entryDx=0;entryDy=0;" edge="1" parent="1" source="IvAjmsgnJbrjpKuY-dAH-13" target="IvAjmsgnJbrjpKuY-dAH-36">
          <mxGeometry relative="1" as="geometry" />
        </mxCell>
        <mxCell id="IvAjmsgnJbrjpKuY-dAH-12" value="n" style="edgeLabel;html=1;align=center;verticalAlign=middle;resizable=0;points=[];" vertex="1" connectable="0" parent="IvAjmsgnJbrjpKuY-dAH-11">
          <mxGeometry x="-0.2571" relative="1" as="geometry">
            <mxPoint as="offset" />
          </mxGeometry>
        </mxCell>
        <mxCell id="IvAjmsgnJbrjpKuY-dAH-13" value="exist in&lt;br&gt;udf function?" style="rhombus;whiteSpace=wrap;html=1;" vertex="1" parent="1">
          <mxGeometry x="-897.5" y="1120" width="170" height="80" as="geometry" />
        </mxCell>
        <mxCell id="IvAjmsgnJbrjpKuY-dAH-14" style="edgeStyle=orthogonalEdgeStyle;rounded=0;orthogonalLoop=1;jettySize=auto;html=1;exitX=0.5;exitY=1;exitDx=0;exitDy=0;entryX=0.5;entryY=0;entryDx=0;entryDy=0;" edge="1" parent="1" source="IvAjmsgnJbrjpKuY-dAH-15" target="IvAjmsgnJbrjpKuY-dAH-21">
          <mxGeometry relative="1" as="geometry" />
        </mxCell>
        <mxCell id="IvAjmsgnJbrjpKuY-dAH-15" value="use built-in function" style="rounded=0;whiteSpace=wrap;html=1;" vertex="1" parent="1">
          <mxGeometry x="-1080" y="1240" width="120" height="60" as="geometry" />
        </mxCell>
        <mxCell id="IvAjmsgnJbrjpKuY-dAH-16" style="edgeStyle=orthogonalEdgeStyle;rounded=0;orthogonalLoop=1;jettySize=auto;html=1;exitX=1;exitY=0.5;exitDx=0;exitDy=0;entryX=0.5;entryY=0;entryDx=0;entryDy=0;" edge="1" parent="1" source="IvAjmsgnJbrjpKuY-dAH-20" target="IvAjmsgnJbrjpKuY-dAH-25">
          <mxGeometry relative="1" as="geometry" />
        </mxCell>
        <mxCell id="IvAjmsgnJbrjpKuY-dAH-17" value="y" style="edgeLabel;html=1;align=center;verticalAlign=middle;resizable=0;points=[];" vertex="1" connectable="0" parent="IvAjmsgnJbrjpKuY-dAH-16">
          <mxGeometry x="-0.225" y="1" relative="1" as="geometry">
            <mxPoint as="offset" />
          </mxGeometry>
        </mxCell>
        <mxCell id="IvAjmsgnJbrjpKuY-dAH-18" style="edgeStyle=orthogonalEdgeStyle;rounded=0;orthogonalLoop=1;jettySize=auto;html=1;entryX=0.5;entryY=0;entryDx=0;entryDy=0;exitX=0.5;exitY=1;exitDx=0;exitDy=0;" edge="1" parent="1" source="IvAjmsgnJbrjpKuY-dAH-20" target="IvAjmsgnJbrjpKuY-dAH-29">
          <mxGeometry relative="1" as="geometry">
            <mxPoint x="-174" y="1220" as="targetPoint" />
            <mxPoint x="-490" y="1230" as="sourcePoint" />
          </mxGeometry>
        </mxCell>
        <mxCell id="IvAjmsgnJbrjpKuY-dAH-19" value="n" style="edgeLabel;html=1;align=center;verticalAlign=middle;resizable=0;points=[];" vertex="1" connectable="0" parent="IvAjmsgnJbrjpKuY-dAH-18">
          <mxGeometry x="-0.1307" y="1" relative="1" as="geometry">
            <mxPoint x="1" y="1" as="offset" />
          </mxGeometry>
        </mxCell>
        <mxCell id="IvAjmsgnJbrjpKuY-dAH-20" value="exist in&lt;br&gt;thive udf function?" style="rhombus;whiteSpace=wrap;html=1;" vertex="1" parent="1">
          <mxGeometry x="-479" y="1120" width="170" height="80" as="geometry" />
        </mxCell>
        <mxCell id="IvAjmsgnJbrjpKuY-dAH-21" value="" style="ellipse;html=1;shape=endState;fillColor=#000000;strokeColor=#ff0000;" vertex="1" parent="1">
          <mxGeometry x="-682.5" y="1420" width="30" height="30" as="geometry" />
        </mxCell>
        <mxCell id="IvAjmsgnJbrjpKuY-dAH-22" value="" style="ellipse;html=1;shape=startState;fillColor=#000000;strokeColor=#ff0000;" vertex="1" parent="1">
          <mxGeometry x="-827.5" y="840" width="30" height="30" as="geometry" />
        </mxCell>
        <mxCell id="IvAjmsgnJbrjpKuY-dAH-23" value="" style="edgeStyle=orthogonalEdgeStyle;html=1;verticalAlign=bottom;endArrow=open;endSize=8;strokeColor=#ff0000;rounded=0;entryX=0.5;entryY=0;entryDx=0;entryDy=0;" edge="1" parent="1" source="IvAjmsgnJbrjpKuY-dAH-22" target="IvAjmsgnJbrjpKuY-dAH-4">
          <mxGeometry relative="1" as="geometry">
            <mxPoint x="-1020" y="960" as="targetPoint" />
          </mxGeometry>
        </mxCell>
        <mxCell id="IvAjmsgnJbrjpKuY-dAH-24" style="edgeStyle=orthogonalEdgeStyle;rounded=0;orthogonalLoop=1;jettySize=auto;html=1;exitX=0.5;exitY=1;exitDx=0;exitDy=0;entryX=0.5;entryY=0;entryDx=0;entryDy=0;" edge="1" parent="1" source="IvAjmsgnJbrjpKuY-dAH-25" target="IvAjmsgnJbrjpKuY-dAH-21">
          <mxGeometry relative="1" as="geometry" />
        </mxCell>
        <mxCell id="IvAjmsgnJbrjpKuY-dAH-25" value="use thive udf function" style="rounded=0;whiteSpace=wrap;html=1;" vertex="1" parent="1">
          <mxGeometry x="-261.5" y="1240" width="120" height="60" as="geometry" />
        </mxCell>
        <mxCell id="IvAjmsgnJbrjpKuY-dAH-26" style="edgeStyle=orthogonalEdgeStyle;rounded=0;orthogonalLoop=1;jettySize=auto;html=1;exitX=0.5;exitY=1;exitDx=0;exitDy=0;entryX=0.5;entryY=0;entryDx=0;entryDy=0;" edge="1" parent="1" source="IvAjmsgnJbrjpKuY-dAH-27" target="IvAjmsgnJbrjpKuY-dAH-21">
          <mxGeometry relative="1" as="geometry" />
        </mxCell>
        <mxCell id="IvAjmsgnJbrjpKuY-dAH-27" value="use udf function" style="rounded=0;whiteSpace=wrap;html=1;" vertex="1" parent="1">
          <mxGeometry x="-872.5" y="1240" width="120" height="60" as="geometry" />
        </mxCell>
        <mxCell id="IvAjmsgnJbrjpKuY-dAH-28" style="edgeStyle=orthogonalEdgeStyle;rounded=0;orthogonalLoop=1;jettySize=auto;html=1;exitX=0.5;exitY=1;exitDx=0;exitDy=0;entryX=0.5;entryY=0;entryDx=0;entryDy=0;" edge="1" parent="1" source="IvAjmsgnJbrjpKuY-dAH-29" target="IvAjmsgnJbrjpKuY-dAH-21">
          <mxGeometry relative="1" as="geometry" />
        </mxCell>
        <mxCell id="IvAjmsgnJbrjpKuY-dAH-29" value="throw exception" style="rounded=0;whiteSpace=wrap;html=1;" vertex="1" parent="1">
          <mxGeometry x="-454" y="1240" width="120" height="60" as="geometry" />
        </mxCell>
        <mxCell id="IvAjmsgnJbrjpKuY-dAH-30" style="edgeStyle=orthogonalEdgeStyle;rounded=0;orthogonalLoop=1;jettySize=auto;html=1;exitX=1;exitY=0.5;exitDx=0;exitDy=0;entryX=0.5;entryY=0;entryDx=0;entryDy=0;" edge="1" parent="1" source="IvAjmsgnJbrjpKuY-dAH-32" target="IvAjmsgnJbrjpKuY-dAH-20">
          <mxGeometry relative="1" as="geometry" />
        </mxCell>
        <mxCell id="IvAjmsgnJbrjpKuY-dAH-31" value="y" style="edgeLabel;html=1;align=center;verticalAlign=middle;resizable=0;points=[];" vertex="1" connectable="0" parent="IvAjmsgnJbrjpKuY-dAH-30">
          <mxGeometry x="-0.2" relative="1" as="geometry">
            <mxPoint y="1" as="offset" />
          </mxGeometry>
        </mxCell>
        <mxCell id="IvAjmsgnJbrjpKuY-dAH-32" value="function &lt;br&gt;with thive prefix?" style="rhombus;whiteSpace=wrap;html=1;" vertex="1" parent="1">
          <mxGeometry x="-897.5" y="990" width="170" height="80" as="geometry" />
        </mxCell>
        <mxCell id="IvAjmsgnJbrjpKuY-dAH-33" value="y" style="edgeStyle=orthogonalEdgeStyle;rounded=0;orthogonalLoop=1;jettySize=auto;html=1;exitX=1;exitY=0.5;exitDx=0;exitDy=0;entryX=0;entryY=0.5;entryDx=0;entryDy=0;" edge="1" parent="1" source="IvAjmsgnJbrjpKuY-dAH-36" target="IvAjmsgnJbrjpKuY-dAH-20">
          <mxGeometry relative="1" as="geometry" />
        </mxCell>
        <mxCell id="IvAjmsgnJbrjpKuY-dAH-34" style="edgeStyle=orthogonalEdgeStyle;rounded=0;orthogonalLoop=1;jettySize=auto;html=1;exitX=0.5;exitY=1;exitDx=0;exitDy=0;entryX=0;entryY=0.5;entryDx=0;entryDy=0;" edge="1" parent="1" source="IvAjmsgnJbrjpKuY-dAH-36" target="IvAjmsgnJbrjpKuY-dAH-29">
          <mxGeometry relative="1" as="geometry" />
        </mxCell>
        <mxCell id="IvAjmsgnJbrjpKuY-dAH-35" value="n" style="edgeLabel;html=1;align=center;verticalAlign=middle;resizable=0;points=[];" vertex="1" connectable="0" parent="IvAjmsgnJbrjpKuY-dAH-34">
          <mxGeometry x="-0.5032" y="-2" relative="1" as="geometry">
            <mxPoint as="offset" />
          </mxGeometry>
        </mxCell>
        <mxCell id="IvAjmsgnJbrjpKuY-dAH-36" value="thive function enable?" style="rhombus;whiteSpace=wrap;html=1;" vertex="1" parent="1">
          <mxGeometry x="-692.5" y="1120" width="170" height="80" as="geometry" />
        </mxCell>
      </root>
    </mxGraphModel>
  </diagram>
</mxfile>
